<svg width="128" height="132" viewBox="0 0 128 132" fill="none" xmlns="http://www.w3.org/2000/svg">
<path d="M93.7448 8.64902C81.322 2.34116 72.6956 -0.779015 58.7526 0.834569C48.9118 1.97366 41.3141 5.11405 34.7243 9.98594C28.1452 14.8499 22.5898 21.4266 16.8092 29.401C9.94395 38.8716 4.82125 48.0178 2.38149 57.5836C-0.0611624 67.1609 0.191349 77.1325 4.03383 88.2369C7.24426 97.5162 11.6682 104.384 17.5309 109.955C23.3871 115.519 30.659 119.77 39.5319 123.846C47.5427 127.527 54.5995 130.131 61.7741 131.134C68.9584 132.139 76.2363 131.536 84.6901 128.837C95.9704 125.237 104.054 119.227 110.1 111.255C116.139 103.295 120.13 93.3989 123.268 82.0484C126.066 71.9304 127.693 62.8334 127.114 54.0904C126.534 45.3355 123.742 36.9614 117.746 28.2838C110.848 18.3022 104.495 14.1076 93.7448 8.64902ZM79.4567 99.5895C80.8804 99.1532 82.4276 99.2233 83.7526 99.94C85.9267 101.116 87.5435 103.324 88.025 105.775C88.24 106.87 88.0592 108.957 87.4166 109.85C86.9484 110.5 86.2152 110.895 85.484 111.208C82.7732 112.368 80.1105 112.427 77.2692 111.81C75.3006 111.382 74.2753 109.142 73.8825 107.132C73.5153 105.253 73.5022 103.098 74.7526 101.689C76.0147 100.267 78.3185 99.9382 79.4567 99.5895ZM54.0524 44.3463C57.6574 32.6726 61.7805 28.5336 64.6588 29.4469C67.5373 30.3602 77.5046 32.8837 75.7897 43.5562C79.5866 35.5474 79.7378 29.7473 88.7165 30.3541C95.8989 30.8395 98.0977 39.2066 98.2995 43.3297L94.2301 80.2545C95.2128 79.978 96.1159 79.777 96.779 79.5738C99.1211 78.856 101.666 78.9702 103.844 80.1451C107.419 82.0732 110.075 85.6961 110.864 89.7184C111.216 91.5162 110.917 94.9422 109.859 96.4088C109.088 97.4767 107.882 98.1236 106.679 98.6383C102.219 100.546 97.8386 100.646 93.1657 99.6363C90.0475 98.9621 88.3736 95.5275 87.6793 92.3277C85.9323 93.1816 83.7426 93.7132 81.0231 93.6734C71.7099 93.5372 70.6445 85.317 72.3336 65.8961C70.5738 85.1956 67.9481 93.5255 56.4079 93.5514C46.7086 94.0386 47.1761 83.9863 49.6862 66.7721C45.5534 89.5537 42.7453 92.1843 35.7877 92.775C28.7773 93.3694 24.5308 88.7157 25.3024 82.7154L32.444 41.6529C33.3875 37.5731 36.6929 29.7344 42.3639 31.0221C49.4519 32.631 55.0813 37.9439 54.0524 44.3463Z" fill="#3C4228"/>
</svg>
